<svg width="210" height="170" viewBox="0 0 210 170" fill="none" xmlns="http://www.w3.org/2000/svg">
<path d="M150.463 121.271C145.441 121.271 142.462 118.7 142.234 114.996H147.037C147.037 116.231 147.72 117.874 150.691 117.977C152.75 117.977 153.89 116.742 153.89 115.814C153.662 114.375 151.831 114.273 150.007 113.958C147.948 113.659 146.353 113.243 145.205 112.732C143.61 111.906 142.69 110.153 142.69 108.304C142.69 105.01 145.441 102.438 150.235 102.438C154.809 102.438 157.78 104.805 158 108.407H153.434C153.434 107.486 153.206 105.938 150.463 105.938C148.632 105.938 147.492 106.244 147.265 107.581C147.265 109.437 151.147 109.335 154.118 110.05C156.861 110.773 158.692 112.519 158.692 114.996C158.692 119.526 155.038 121.271 150.463 121.271Z" fill="#5D5D5D"/>
<path d="M62.9565 90.8832L78.7229 81.7222L87.1794 96.2381H65.9272" fill="#5D5D5D"/>
<path d="M96.1055 120.725V102.403Z" fill="#5D5D5D"/>
<path d="M96.1055 120.725V102.403" stroke="#5D5D5D" stroke-width="4.61465"/>
<path fill-rule="evenodd" clip-rule="evenodd" d="M60.6694 121.303C55.6472 121.303 51.3086 117.081 51.3086 111.836C51.3086 106.591 55.6472 102.47 60.6694 102.47C62.7283 102.47 64.5598 102.989 66.1552 104.114V102.675H70.7293V120.887H66.1552V119.754C64.7873 120.784 62.7283 121.303 60.6694 121.303ZM60.8968 117.081C63.8755 117.081 66.1552 114.714 66.1552 111.836C66.1552 109.06 63.8755 106.591 60.8968 106.591C58.1623 106.591 55.6472 109.06 55.6472 111.836C55.6472 114.714 58.1623 117.081 60.8968 117.081Z" fill="#5D5D5D"/>
<path d="M121.68 96.2369L99.7446 57.9577L115.511 48.6948L142.933 96.2369" fill="#5D5D5D"/>
<path fill-rule="evenodd" clip-rule="evenodd" d="M81.6924 121.305C76.4347 121.305 72.3242 117.082 72.3242 111.838C72.3242 106.593 76.4347 102.472 81.6924 102.472C83.7439 102.472 85.5755 102.991 87.1782 104.116V96.4019H91.7449V120.889H87.1782V119.756C85.5755 120.786 83.7439 121.305 81.6924 121.305ZM76.6628 111.838C76.6628 114.716 78.9498 117.082 81.9205 117.082C84.6557 117.082 87.1782 114.716 87.1782 111.838C87.1782 109.062 84.6557 106.593 81.9205 106.593C78.9498 106.593 76.6628 109.062 76.6628 111.838Z" fill="#5D5D5D"/>
<path d="M81.4653 74.5271L97.4598 65.4761L115.057 96.2375H98.3715V100.767H93.8049V96.2375" fill="#5D5D5D"/>
<path fill-rule="evenodd" clip-rule="evenodd" d="M155.724 100.906C154.576 100.906 153.437 99.8755 153.437 98.6412C153.437 97.4063 154.576 96.3765 155.724 96.3765C157.091 96.3765 158.011 97.4063 158.011 98.6412C158.011 99.8755 157.091 100.906 155.724 100.906ZM155.724 96.6909C154.576 96.6909 153.893 97.6108 153.893 98.6412C153.893 99.6711 154.576 100.599 155.724 100.599C156.863 100.599 157.547 99.6711 157.547 98.6412C157.547 97.6108 156.863 96.6909 155.724 96.6909Z" fill="#5D5D5D"/>
<path fill-rule="evenodd" clip-rule="evenodd" d="M156.191 99.8809L155.736 98.8504H155.28V99.8809H154.934V97.4116H155.964C156.191 97.4116 156.648 97.7261 156.648 98.1351C156.648 98.544 156.419 98.7485 156.191 98.8504L156.648 99.8809M155.28 97.7261V98.544H155.736C156.191 98.544 156.191 98.4414 156.191 98.1351C156.191 97.9225 156.191 97.7261 155.736 97.7261H155.28Z" fill="#5D5D5D"/>
<path fill-rule="evenodd" clip-rule="evenodd" d="M130.566 121.305C125.316 121.305 121.206 117.083 121.206 111.838C121.206 106.593 125.316 102.472 130.566 102.472C132.625 102.472 134.457 102.991 136.052 104.116V102.677H140.398V120.889H136.052V119.756C134.457 120.786 132.625 121.305 130.566 121.305ZM130.802 117.083C133.545 117.083 136.052 114.716 136.052 111.838C136.052 109.062 133.545 106.593 130.802 106.593C127.831 106.593 125.544 109.062 125.544 111.838C125.544 114.716 127.831 117.083 130.802 117.083Z" fill="#5D5D5D"/>
<path fill-rule="evenodd" clip-rule="evenodd" d="M115.049 96.4009H119.615V120.888H115.049V119.755C113.674 120.785 111.842 121.304 109.791 121.304C104.533 121.304 100.194 117.081 100.194 111.837C100.194 106.592 104.533 102.471 109.791 102.471C111.842 102.471 113.674 102.99 115.049 104.115V96.4009ZM104.533 111.837C104.533 114.715 107.048 117.081 109.791 117.081C112.762 117.081 115.049 114.715 115.049 111.837C115.049 109.061 112.762 106.592 109.791 106.592C107.048 106.592 104.533 109.061 104.533 111.837Z" fill="#5D5D5D"/>
</svg>
