<svg width="210" height="170" viewBox="0 0 210 170" fill="none" xmlns="http://www.w3.org/2000/svg">
<path d="M56.4831 65.215V69.5631H51.3877V75.2429H56.4831V98.0322C56.4831 99.7631 58.3271 101.147 60.6496 101.147C62.9694 101.147 64.8485 99.7631 64.8485 98.0322V75.2429H71.6315V69.5631H64.8485V65.215C64.8485 59.9717 69.0893 59.0031 74.8926 60.256V54.5775C66.7289 52.8155 56.4831 53.6394 56.4831 65.215ZM82.5763 75.2408H82.4048V69.5644H75.6232V98.0308C75.6232 99.7631 77.4671 101.147 79.7904 101.147C82.1094 101.147 83.9879 99.7631 83.9879 98.0308V83.7226C83.9879 76.9621 88.531 75.2408 94.0327 75.2408V68.8463C89.0585 68.8332 84.3982 70.4161 82.5763 75.2408ZM141.129 68.8463C133.052 68.8463 126.501 72.7275 126.501 80.3499C126.501 84.413 128.363 87.4107 131.325 89.327C131.108 89.4647 130.892 89.6072 130.686 89.7559C127.011 92.3869 126.617 96.9267 129.986 99.4055C128.334 100.808 126.001 103.357 126.001 106.896C126.001 112.507 131.409 116.132 141.117 116.132C150.824 116.132 158.237 111.721 158.237 104.927C158.237 98.1339 153.369 95.469 144.485 95.469H138.701C134.635 95.469 134.98 92.7418 136.322 91.5692C136.391 91.5111 136.466 91.4516 136.545 91.3928C137.987 91.6993 139.528 91.8501 141.129 91.8501C149.21 91.8501 155.757 87.9717 155.757 80.3499C155.757 78.6335 155.422 77.106 154.817 75.7708C155.974 75.4429 157.257 75.2837 158.612 75.2408V69.5631C155.02 69.5631 152.701 69.7962 150.246 70.9557C147.748 69.552 144.579 68.8463 141.129 68.8463ZM136.689 101.147H144.485C147.688 101.147 149.87 102.11 149.87 104.927C149.87 108.714 146.521 110.455 141.117 110.455C132.773 110.455 133.271 103.823 136.689 101.147ZM141.129 86.1688C137.673 86.1688 134.867 84.8696 134.867 80.3472C134.867 75.8247 137.673 74.5276 141.129 74.5276C144.589 74.5276 147.392 75.8247 147.392 80.3472C147.392 84.8696 144.589 86.1688 141.129 86.1688ZM109.233 68.8463C100.153 68.8463 94.6055 74.2937 94.6055 84.9976C94.6055 95.7021 100.153 101.147 109.233 101.147C118.314 101.147 123.86 95.7021 123.86 84.9976C123.86 74.2937 118.314 68.8463 109.233 68.8463ZM109.233 95.469C105.775 95.469 102.972 94.1068 102.972 84.9976C102.972 75.8918 105.775 74.5338 109.233 74.5338C112.691 74.5338 115.495 75.8918 115.495 84.9976C115.495 94.1068 112.691 95.469 109.233 95.469Z" fill="#5D5D5D"/>
</svg>
