<svg width="210" height="170" viewBox="0 0 210 170" fill="none" xmlns="http://www.w3.org/2000/svg">
<g clip-path="url(#clip0_749_2484)">
<path fill-rule="evenodd" clip-rule="evenodd" d="M88.6033 97.3982H84.303V77.9403H84.2463L76.5641 97.3982H73.6964L65.8417 77.9403H65.785V97.3982H61.8286V72.6017H68.0214L75.1303 90.9698H75.2449L82.7557 72.6017H88.6033V97.3982ZM92.1577 74.4955C92.1577 73.8075 92.387 73.233 92.9036 72.7743C93.4189 72.3144 93.9922 72.0851 94.6802 72.0851C95.4261 72.0851 96.0573 72.3144 96.516 72.7743C96.9746 73.233 97.2606 73.8075 97.2606 74.4955C97.2606 75.1847 97.0313 75.7592 96.516 76.2179C95.9994 76.6765 95.4261 76.9071 94.6802 76.9071C93.9355 76.9071 93.3622 76.6765 92.9036 76.2179C92.445 75.7013 92.1577 75.1267 92.1577 74.4955ZM96.802 79.6047V97.3982H92.6163V79.6047H96.802ZM109.472 94.3566C110.104 94.3566 110.792 94.2407 111.536 93.8967C112.282 93.6094 112.97 93.2075 113.6 92.7488V96.6523C112.912 97.0542 112.168 97.3402 111.307 97.5128C110.448 97.6855 109.53 97.8001 108.498 97.8001C105.861 97.8001 103.739 96.9963 102.134 95.3318C100.471 93.6674 99.6685 91.543 99.6685 89.018C99.6685 86.1478 100.529 83.7941 102.191 81.9583C103.854 80.1213 106.205 79.2028 109.301 79.2028C110.104 79.2028 110.906 79.3174 111.651 79.49C112.454 79.6614 113.085 79.9487 113.543 80.178V84.1961C112.912 83.7374 112.224 83.3355 111.594 83.1062C110.906 82.8756 110.218 82.7043 109.53 82.7043C107.867 82.7043 106.549 83.2208 105.517 84.3107C104.484 85.4019 104.025 86.837 104.025 88.6741C104.025 90.4532 104.542 91.8883 105.517 92.8635C106.491 93.84 107.81 94.3566 109.472 94.3566ZM125.469 79.3174C125.813 79.3174 126.099 79.3174 126.386 79.3754C126.672 79.4321 126.902 79.49 127.074 79.5467V83.7941C126.845 83.6228 126.558 83.4502 126.099 83.3355C125.641 83.2208 125.182 83.1062 124.552 83.1062C123.519 83.1062 122.659 83.5648 121.971 84.4254C121.283 85.2872 120.882 86.6077 120.882 88.4435V97.3982H116.697V79.6047H120.882V82.417H120.94C121.34 81.4418 121.913 80.6946 122.659 80.1213C123.462 79.6047 124.379 79.3174 125.469 79.3174ZM127.304 88.7887C127.304 85.8605 128.163 83.5081 129.768 81.7857C131.431 80.0633 133.725 79.2028 136.649 79.2028C139.401 79.2028 141.579 80.0066 143.127 81.6711C144.675 83.3355 145.478 85.5745 145.478 88.3868C145.478 91.257 144.618 93.5527 143.012 95.2739C141.35 96.9963 139.114 97.8568 136.247 97.8568C133.495 97.8568 131.317 97.0542 129.712 95.4465C128.106 93.782 127.304 91.543 127.304 88.7887ZM131.661 88.6161C131.661 90.4532 132.061 91.8883 132.922 92.8635C133.781 93.84 134.986 94.3566 136.534 94.3566C138.025 94.3566 139.228 93.8967 140.031 92.8635C140.833 91.8883 141.235 90.4532 141.235 88.5014C141.235 86.6077 140.833 85.1726 140.031 84.1394C139.228 83.1629 138.025 82.6463 136.591 82.6463C135.044 82.6463 133.896 83.1629 133.037 84.1961C132.061 85.2872 131.661 86.7223 131.661 88.6161ZM151.727 84.3107C151.727 84.8853 151.899 85.4019 152.301 85.7459C152.701 86.0911 153.505 86.4918 154.823 87.0084C156.486 87.6976 157.689 88.4435 158.321 89.2474C159.009 90.1079 159.353 91.0844 159.353 92.2902C159.353 93.9547 158.721 95.2739 157.403 96.307C156.142 97.3402 154.364 97.8001 152.186 97.8001C151.44 97.8001 150.637 97.6855 149.72 97.5128C148.803 97.3402 148.058 97.1109 147.427 96.8236V92.6909C148.173 93.2075 149.032 93.6674 149.893 93.9547C150.752 94.2407 151.555 94.4133 152.301 94.4133C153.218 94.4133 153.964 94.2986 154.364 94.0114C154.823 93.7241 155.052 93.3234 155.052 92.6909C155.052 92.1176 154.823 91.6577 154.364 91.1991C153.906 90.7971 152.988 90.3385 151.727 89.8219C150.179 89.1907 149.09 88.4435 148.459 87.6409C147.829 86.837 147.485 85.8038 147.485 84.5413C147.485 82.9336 148.115 81.6131 149.376 80.5799C150.637 79.5467 152.301 79.0301 154.308 79.0301C154.938 79.0301 155.626 79.0881 156.372 79.2595C157.116 79.4321 157.804 79.6047 158.321 79.7761V83.8521C157.747 83.5081 157.116 83.1629 156.372 82.8756C155.626 82.5896 154.881 82.4749 154.193 82.4749C153.389 82.4749 152.759 82.6463 152.357 82.9336C151.957 83.3355 151.727 83.7374 151.727 84.3107ZM161.129 88.7887C161.129 85.8605 161.99 83.5081 163.595 81.7857C165.258 80.0633 167.551 79.2028 170.475 79.2028C173.228 79.2028 175.406 80.0066 176.953 81.6711C178.502 83.3355 179.305 85.5745 179.305 88.3868C179.305 91.257 178.444 93.5527 176.839 95.2739C175.177 96.9963 172.94 97.8568 170.074 97.8568C167.322 97.8568 165.144 97.0542 163.538 95.4465C161.99 93.782 161.129 91.543 161.129 88.7887ZM165.488 88.6161C165.488 90.4532 165.888 91.8883 166.749 92.8635C167.608 93.84 168.813 94.3566 170.36 94.3566C171.85 94.3566 173.055 93.8967 173.858 92.8635C174.66 91.8883 175.062 90.4532 175.062 88.5014C175.062 86.6077 174.66 85.1726 173.858 84.1394C173.055 83.1629 171.85 82.6463 170.418 82.6463C168.869 82.6463 167.723 83.1629 166.863 84.1961C165.946 85.2872 165.488 86.7223 165.488 88.6161ZM186.987 83.0482V97.3982H182.744V83.0482H179.763V79.6047H182.744V77.1364C182.744 75.2993 183.376 73.7496 184.579 72.5437C185.783 71.3392 187.331 70.7646 189.223 70.7646C189.738 70.7646 190.197 70.8226 190.599 70.8226C191 70.8226 191.344 70.9373 191.631 71.0519V74.6681C191.516 74.6101 191.229 74.4955 190.885 74.3808C190.541 74.2661 190.14 74.2094 189.682 74.2094C188.821 74.2094 188.133 74.4955 187.675 75.0121C187.216 75.5286 186.987 76.3905 186.987 77.4237V79.5467H193.236V75.5286L197.422 74.2661V79.5467H201.664V82.9915H197.422V91.3137C197.422 92.4049 197.651 93.1508 197.995 93.6094C198.396 94.0693 199.027 94.2986 199.886 94.2986C200.116 94.2986 200.403 94.2407 200.747 94.126C201.091 94.0114 201.377 93.8967 201.606 93.7241V97.1689C201.32 97.3402 200.918 97.4561 200.288 97.5708C199.657 97.6855 199.084 97.7422 198.454 97.7422C196.676 97.7422 195.358 97.2835 194.497 96.365C193.638 95.4465 193.179 94.0114 193.179 92.1176L193.236 83.0482H186.987Z" fill="#5D5D5D"/>
<path d="M8.10791 64.3379H27.7158V83.9684H8.10791V64.3379Z" fill="#5D5D5D"/>
<path d="M29.7817 64.3379H49.3896V83.9684H29.7817V64.3379Z" fill="#5D5D5D"/>
<path d="M8.10791 86.041H27.7158V105.672H8.10791V86.041Z" fill="#5D5D5D"/>
<path d="M29.7817 86.041H49.3896V105.672H29.7817V86.041Z" fill="#5D5D5D"/>
</g>
<defs>
<clipPath id="clip0_749_2484">
<rect width="193.786" height="41.3275" fill="white" transform="translate(8.10742 64.3364)"/>
</clipPath>
</defs>
</svg>
