<svg width="210" height="170" viewBox="0 0 210 170" fill="none" xmlns="http://www.w3.org/2000/svg">
<path d="M56.7978 71.3913C57.242 71.3535 57.6958 71.3346 58.1401 71.4007C59.4257 71.741 60.2859 73.2063 59.9362 74.4919C59.7282 75.4183 58.972 76.1745 58.055 76.4203C57.3082 76.5243 56.4669 76.4865 55.8619 75.976C55.2664 75.5128 54.841 74.8038 54.8315 74.0287C54.7275 72.8376 55.6161 71.6276 56.7883 71.3913H56.7978Z" fill="#5D5D5D"/>
<path d="M62.7745 71.9426C62.7556 71.8197 62.7934 71.6401 62.9447 71.6401C64.3343 71.6401 65.7239 71.6306 67.104 71.6495C67.1418 80.4692 67.104 89.2984 67.1229 98.1181C65.6766 98.1937 64.2303 98.1276 62.7745 98.1465C62.7651 89.4118 62.784 80.6772 62.7745 71.9426Z" fill="#5D5D5D"/>
<path d="M172.996 71.7038C174.432 71.6943 175.879 71.6849 177.316 71.7038C177.306 80.5235 177.316 89.3338 177.316 98.144C175.879 98.1251 174.432 98.1913 172.996 98.1157C173.005 89.3149 173.005 80.5046 172.996 71.7038Z" fill="#5D5D5D"/>
<path d="M25.2625 71.7132C27.1342 71.6849 29.0154 71.6943 30.8871 71.7038C32.0593 74.4357 33.2976 77.1298 34.4887 79.8523C35.8878 83.0097 37.2963 86.167 38.6953 89.3338C39.1207 88.5303 39.4516 87.67 39.8297 86.8382C42.0701 81.7997 44.2821 76.7423 46.5319 71.7038C48.3753 71.6943 50.2186 71.6849 52.062 71.7038C52.0525 80.5235 52.062 89.3338 52.0525 98.144C50.6156 98.144 49.1693 98.1629 47.723 98.1346C47.723 93.1244 47.723 88.1143 47.723 83.1042C47.723 81.9604 47.7986 80.826 47.8553 79.6916C47.9215 79.323 47.9499 78.9448 47.931 78.5667C47.8837 78.5951 47.8081 78.6612 47.7608 78.6896C47.118 80.4951 46.4185 82.2723 45.5961 84.0022C43.2517 88.8044 40.9546 93.616 38.6197 98.4182C36.4266 93.909 34.2618 89.3905 32.0876 84.8908C31.0383 82.8773 30.1686 80.7787 29.488 78.6234C29.4408 78.6045 29.3557 78.5667 29.3179 78.5478C29.2801 79.0583 29.4219 79.5593 29.4029 80.0698C29.4029 80.8638 29.488 81.6484 29.4975 82.4425C29.4975 87.67 29.488 92.8881 29.4975 98.1157C28.9492 98.1724 28.3915 98.1346 27.8432 98.144C26.983 98.1346 26.1227 98.1724 25.2625 98.1251C25.253 89.3243 25.2625 80.514 25.2625 71.7038V71.7132Z" fill="#5D5D5D"/>
<path d="M70.3164 73.0846C70.3258 72.6214 70.2975 72.1487 70.3353 71.6855C71.7532 71.7139 73.1807 71.6855 74.5986 71.7045C74.5986 80.5147 74.6081 89.3344 74.5986 98.1447C73.1712 98.1447 71.7438 98.1541 70.3164 98.1447C70.3164 89.7882 70.3164 81.4411 70.3164 73.0846Z" fill="#5D5D5D"/>
<path d="M110.388 71.7038C111.815 71.6849 113.243 71.6943 114.67 71.7038C114.68 75.9482 114.67 80.2021 114.68 84.4465C115.332 83.7848 115.909 83.0569 116.532 82.3668C119.435 79.0677 122.327 75.7497 125.239 72.4506C125.437 72.1953 125.674 71.9685 125.872 71.7038C127.583 71.6943 129.304 71.6849 131.015 71.7132C130.523 72.4789 129.833 73.1028 129.266 73.8213C126.184 77.3851 123.112 80.9583 120.021 84.5221C123.008 88.0481 126.052 91.5363 129.048 95.0529C129.937 96.0454 130.75 97.0947 131.667 98.0589C131.705 91.4796 131.676 84.8908 131.686 78.3115C133.11 78.3052 134.534 78.3052 135.959 78.3115C135.959 78.8881 135.949 79.4648 135.959 80.0414C136.743 79.2946 137.641 78.6423 138.672 78.2642C139.796 77.8672 140.997 77.6687 142.188 77.7348C144.069 77.7538 146.054 78.3493 147.349 79.7767C148.597 81.1285 149.117 83.0002 149.164 84.8057C149.174 89.2487 149.174 93.7011 149.164 98.144C147.747 98.144 146.325 98.144 144.901 98.144C144.892 93.9469 144.901 89.7591 144.901 85.562C144.826 84.5411 144.693 83.454 144.031 82.6315C143.493 81.9415 142.642 81.6012 141.801 81.4877C140.751 81.3743 139.645 81.4404 138.69 81.932C137.594 82.4236 136.79 83.4256 136.384 84.5411C136.063 85.3162 136.044 86.1575 135.959 86.9705C135.959 90.7045 135.959 94.4195 135.949 98.144C132.839 98.144 129.729 98.144 126.619 98.144C126.269 98.1913 126.127 97.8321 125.919 97.6241C122.894 94.1265 119.869 90.6257 116.844 87.1217C116.126 86.2804 115.417 85.4391 114.67 84.6261C114.67 89.1352 114.68 93.6349 114.67 98.144C113.246 98.1503 111.819 98.1503 110.388 98.144C110.379 89.3338 110.388 80.5235 110.388 71.7038Z" fill="#5D5D5D"/>
<path d="M180.493 71.7038C181.902 71.6849 183.32 71.6943 184.738 71.7038C184.738 80.514 184.747 89.3338 184.738 98.144C183.329 98.1251 181.911 98.1913 180.503 98.1157C180.484 89.3149 180.493 80.514 180.493 71.7038Z" fill="#5D5D5D"/>
<path fill-rule="evenodd" clip-rule="evenodd" d="M82.8055 78.3409C83.9304 77.8872 85.1498 77.7265 86.3598 77.6792C87.6738 77.717 89.0067 77.8872 90.2261 78.4071C92.0506 79.1161 93.5347 80.5624 94.4611 82.2734C95.7278 84.5799 96.0681 87.2741 95.9641 89.8737C90.9824 89.8737 86.0006 89.8642 81.0188 89.8737C81.189 91.4996 82.0114 93.0877 83.3348 94.0708C84.0249 94.6002 84.8473 94.9121 85.6981 95.0634C86.3031 95.1012 86.8986 95.1012 87.4942 95.0728C88.6569 94.9121 89.8291 94.4017 90.5286 93.428C90.8122 93.0215 91.058 92.5489 91.0769 92.0384C92.6367 92.0006 94.1964 92.0101 95.7562 92.029C95.6238 92.3976 95.5293 92.7758 95.397 93.1444C94.8203 94.6475 93.8183 95.9898 92.5138 96.9257C90.8028 98.1545 88.6475 98.7123 86.5489 98.6367C83.8169 98.7123 81.0472 97.5874 79.2417 95.5171C77.5307 93.6076 76.7271 91.0269 76.6799 88.4935C76.6232 86.1586 77.1525 83.767 78.4571 81.8007C79.4969 80.2315 81.0283 78.9932 82.8055 78.3409ZM82.8527 82.5286C81.7656 83.4928 81.1323 84.9108 81.0188 86.3477C84.5543 86.3382 88.0897 86.3382 91.6252 86.3571C91.6346 85.8467 91.5023 85.3456 91.3605 84.8635C91.1147 84.0033 90.6799 83.1809 90.0182 82.5664C89.1107 81.6589 87.8061 81.2336 86.5489 81.2525C85.216 81.1863 83.8453 81.6211 82.8527 82.5286Z" fill="#5D5D5D"/>
<path fill-rule="evenodd" clip-rule="evenodd" d="M159.737 77.7652C160.966 77.7463 162.223 77.6423 163.424 77.9354C165.248 78.2946 166.968 79.1832 168.273 80.5066C169.625 81.849 170.513 83.6072 170.92 85.4506C171.411 87.7571 171.289 90.2055 170.476 92.4175C169.984 93.6653 169.294 94.8469 168.33 95.7828C166.959 97.2386 165.078 98.1461 163.121 98.4864C162.128 98.6943 161.108 98.6376 160.096 98.6187C157.837 98.4485 155.606 97.5316 153.989 95.9246C152.789 94.7713 151.957 93.2777 151.475 91.6991C150.823 89.402 150.804 86.9158 151.494 84.6282C151.919 83.1913 152.666 81.8584 153.677 80.7524C155.237 79.0509 157.459 78.0394 159.737 77.7652ZM160.332 81.4708C159.104 81.6315 157.931 82.2082 157.071 83.1062C155.993 84.2122 155.474 85.7436 155.332 87.2561C155.275 88.3716 155.275 89.5059 155.606 90.5836C156.031 92.3135 157.27 93.8733 158.943 94.5255C159.898 94.9509 160.966 94.9509 161.987 94.8658C163.017 94.724 164.01 94.2703 164.794 93.5708C166.042 92.4931 166.685 90.8672 166.846 89.2507C166.912 88.0502 166.912 86.8213 166.571 85.6491C166.25 84.6471 165.758 83.6734 164.974 82.955C163.773 81.7639 161.996 81.2534 160.332 81.4708Z" fill="#5D5D5D"/>
<path d="M103.416 79.2665C104.361 78.4346 105.609 77.9147 106.875 77.9336C107.405 77.9431 107.934 77.9242 108.464 77.9525C108.445 79.3043 108.464 80.6466 108.464 81.9984C107.613 81.9984 106.771 81.989 105.93 81.9984C104.956 82.0079 103.926 82.3387 103.283 83.095C102.584 83.9363 102.357 85.0707 102.366 86.1294C102.366 90.1186 102.357 94.1173 102.366 98.1065C101.516 98.1915 100.646 98.1254 99.7856 98.1443C99.1995 98.1348 98.6134 98.1726 98.0273 98.1159C98.0368 91.5177 98.0368 84.9194 98.0273 78.3212C98.3204 78.2266 98.6323 78.255 98.9348 78.2456C100.003 78.255 101.071 78.2456 102.149 78.255C102.31 78.2266 102.366 78.4441 102.366 78.567C102.376 79.1436 102.347 79.7297 102.376 80.3158C102.744 79.9849 103.037 79.5879 103.416 79.2665Z" fill="#5D5D5D"/>
<path d="M55.2414 78.264C56.6783 78.2357 58.1151 78.2451 59.552 78.2546C59.5898 84.8812 59.552 91.4983 59.5709 98.1249C58.6067 98.1816 57.6425 98.1344 56.6783 98.1438C56.1961 98.1438 55.714 98.1722 55.2319 98.106C55.2414 91.4889 55.2319 84.8812 55.2414 78.264Z" fill="#5D5D5D"/>
</svg>
