<svg width="210" height="170" viewBox="0 0 210 170" fill="none" xmlns="http://www.w3.org/2000/svg">
<path d="M73.5501 74.1704C75.9171 74.1704 77.8462 74.964 79.3238 76.551C80.7193 78.0697 81.4171 80.0125 81.4171 82.3521C81.4171 84.6917 80.7193 86.6345 79.3238 88.1532C77.8462 89.7402 75.9171 90.5338 73.5501 90.5338C71.1832 90.5338 69.254 89.7402 67.7764 88.1532C66.3809 86.6345 65.6831 84.6917 65.6831 82.3521C65.6831 80.0125 66.3809 78.0697 67.7764 76.551C69.254 74.964 71.1832 74.1704 73.5501 74.1704ZM73.5501 88.3857C75.2603 88.3857 76.6148 87.7974 77.6136 86.6071C78.5713 85.4852 79.0365 84.0623 79.0365 82.3521C79.0365 80.6419 78.5576 79.219 77.6136 78.0971C76.6148 76.9068 75.2603 76.3184 73.5501 76.3184C71.8399 76.3184 70.4854 76.9068 69.4866 78.0971C68.5289 79.219 68.0637 80.6419 68.0637 82.3521C68.0637 84.0623 68.5426 85.4852 69.4866 86.6071C70.4854 87.7974 71.8399 88.3857 73.5501 88.3857Z" fill="#5D5D5D"/>
<path d="M86.9309 74.4167V76.8931C87.5056 76.1269 88.2033 75.4839 89.0242 74.964C89.8451 74.4304 90.7892 74.1704 91.8427 74.1704C92.8962 74.1704 93.8128 74.3209 94.5653 74.6082C95.3315 74.9092 95.9882 75.347 96.5629 75.9354C97.8763 77.2214 98.533 78.9317 98.533 81.0386V90.2738H96.1524V81.1071C96.1524 79.6431 95.742 78.4802 94.9211 77.6182C94.1002 76.7563 93.033 76.3184 91.7195 76.3184C90.4061 76.3184 89.2568 76.7563 88.3265 77.6456C87.3961 78.5486 86.9309 79.7252 86.9309 81.1344V90.2738H84.5503V74.4167H86.9309Z" fill="#5D5D5D"/>
<path d="M111.845 78.6717C111.64 77.0162 110.313 76.1953 107.864 76.1953C105.415 76.1953 104.197 76.9615 104.197 78.4802C104.197 79.9988 104.457 79.6021 104.977 79.9304C105.497 80.2588 106.14 80.5324 106.933 80.7376C107.713 80.9429 108.561 81.1481 109.492 81.326C110.408 81.5038 111.257 81.7638 112.05 82.0921C112.83 82.4205 113.487 82.872 114.007 83.4466C114.527 84.0213 114.787 84.8011 114.787 85.7999C114.787 87.3459 114.198 88.5226 113.035 89.3435C111.872 90.1644 110.299 90.5611 108.301 90.5611C106.304 90.5611 104.498 90.0275 103.253 88.9741C102.104 88.0437 101.502 86.826 101.406 85.321H103.882C104.033 86.785 104.854 87.7701 106.359 88.2763C106.906 88.4405 107.453 88.5362 107.987 88.5362C108.52 88.5362 109.027 88.5089 109.492 88.4405C109.957 88.3721 110.408 88.2626 110.86 88.0847C111.872 87.688 112.379 86.9902 112.379 86.0188C112.379 85.0474 112.119 84.8558 111.599 84.5138C111.079 84.1581 110.436 83.8844 109.642 83.6519C108.862 83.4329 108.014 83.2277 107.084 83.0499C106.167 82.872 105.305 82.6257 104.525 82.311C103.745 81.9964 103.089 81.5585 102.569 81.0113C102.049 80.464 101.789 79.6978 101.789 78.7264C101.789 77.2898 102.309 76.1679 103.362 75.3744C104.416 74.5809 105.962 74.1841 108.014 74.1841C110.066 74.1841 111.489 74.6493 112.611 75.5796C113.541 76.3595 114.075 77.3993 114.226 78.6854H111.818L111.845 78.6717Z" fill="#5D5D5D"/>
<path d="M120.191 68.082V76.9068C120.766 76.1406 121.464 75.4975 122.284 74.9776C123.105 74.444 124.049 74.1841 125.103 74.1841C126.156 74.1841 127.073 74.3346 127.826 74.6219C128.592 74.9229 129.248 75.3607 129.823 75.949C131.137 77.2351 131.793 78.9453 131.793 81.0523V90.2875H129.413V81.1207C129.413 79.6568 129.002 78.4938 128.181 77.6319C127.36 76.7699 126.293 76.3321 124.98 76.3321C123.666 76.3321 122.517 76.7699 121.587 77.6593C120.656 78.5623 120.191 79.7389 120.191 81.1481V90.2875H117.811V68.082H120.191Z" fill="#5D5D5D"/>
<path d="M148.143 87.7427C146.871 89.6034 144.982 90.5338 142.465 90.5338C139.948 90.5338 138.319 89.7402 136.883 88.1532C135.487 86.5934 134.79 84.6506 134.79 82.3521C134.79 80.0536 135.487 78.1108 136.883 76.551C138.319 74.964 140.235 74.1704 142.629 74.1704C145.023 74.1704 146.857 75.1145 148.143 76.9889V74.4167H150.524V90.2738H148.143V87.729V87.7427ZM142.78 88.3857C144.49 88.3857 145.844 87.7974 146.843 86.6071C147.801 85.4852 148.266 84.0623 148.266 82.3521C148.266 80.6419 147.787 79.219 146.843 78.0971C145.844 76.9068 144.49 76.3184 142.78 76.3184C141.069 76.3184 139.715 76.9068 138.661 78.0971C137.663 79.219 137.17 80.6419 137.17 82.3521C137.17 84.0623 137.663 85.4852 138.661 86.6071C139.715 87.7974 141.097 88.3857 142.78 88.3857Z" fill="#5D5D5D"/>
<path d="M157.023 76.9615C158.295 75.1008 160.183 74.1704 162.701 74.1704C165.218 74.1704 166.833 74.964 168.255 76.551C169.678 78.1108 170.376 80.0536 170.376 82.3521C170.376 84.6506 169.665 86.5934 168.255 88.1532C166.833 89.7402 164.931 90.5338 162.55 90.5338C160.17 90.5338 158.322 89.5897 157.023 87.7153V96.5674H154.642V74.4167H157.023V76.9615ZM162.386 76.3184C160.676 76.3184 159.321 76.9068 158.322 78.0971C157.365 79.219 156.9 80.6419 156.9 82.3521C156.9 84.0623 157.378 85.4852 158.322 86.6071C159.321 87.7974 160.676 88.3857 162.386 88.3857C164.096 88.3857 165.451 87.7974 166.504 86.6071C167.503 85.4852 167.995 84.0623 167.995 82.3521C167.995 80.6419 167.503 79.219 166.504 78.0971C165.451 76.9068 164.069 76.3184 162.386 76.3184Z" fill="#5D5D5D"/>
<path d="M180.569 88.3857C182.703 88.3857 184.236 87.4964 185.166 85.7178H187.765C187.218 87.1544 186.343 88.3173 185.152 89.2066C183.962 90.096 182.416 90.5338 180.541 90.5338C178.667 90.5338 176.204 89.7402 174.699 88.1532C173.235 86.6071 172.51 84.678 172.51 82.3521C172.51 80.0262 173.208 78.0697 174.604 76.551C176.081 74.964 178.01 74.1704 180.377 74.1704C182.744 74.1704 184.673 74.964 186.151 76.551C187.546 78.0697 188.244 80.0125 188.244 82.3521V83.3098H174.946C175.11 84.7738 175.698 85.9778 176.697 86.9218C177.709 87.8932 178.995 88.3857 180.569 88.3857ZM180.377 76.3184C178.913 76.3184 177.696 76.7699 176.697 77.6866C175.767 78.5486 175.192 79.6842 174.987 81.0797H185.768C185.563 79.6842 184.988 78.5486 184.058 77.6866C183.059 76.7836 181.841 76.3184 180.377 76.3184Z" fill="#5D5D5D"/>
<path d="M38.6612 65.7289L31.8477 61.8022L14.2256 71.9815V81.0935L21.217 85.2391V75.826L38.6612 65.7289Z" fill="#5D5D5D"/>
<path d="M14.2256 84.0898V92.4357L31.9435 102.656L39.701 98.1957V89.631L31.8477 94.7479L14.2256 84.0898Z" fill="#5D5D5D"/>
<path d="M42.3277 76.2775L34.0913 71.5299L41.37 67.3022L49.6475 72.0361V92.4356L42.314 96.6633L42.3277 76.2775Z" fill="#5D5D5D"/>
<path d="M34.5429 74.7591L31.5603 73.0352L23.8164 77.5091V81.5042L26.8674 83.3101V79.2056L34.5429 74.7591Z" fill="#5D5D5D"/>
<path d="M23.8164 83.1182V86.7712L31.8476 91.6008L35.1586 89.5623V85.8956L31.8476 88.0025L23.8164 83.1182Z" fill="#5D5D5D"/>
<path d="M36.486 79.6157L32.8193 77.495L36.0345 75.6206L39.7013 77.7276V86.6891L36.486 88.714V79.6157Z" fill="#5D5D5D"/>
<path d="M191.804 74.8982H190.727V77.6685H190.331V74.8982H189.253V74.5464H191.804V74.8982ZM194.953 77.6685V75.2544L193.916 77.1056H193.691L192.649 75.2544V77.6685H192.254V74.5464H192.671L193.801 76.5735L194.936 74.5464H195.349V77.6685H194.953Z" fill="#3D4647"/>
<path d="M158.277 108.612C157.83 108.612 157.424 108.502 157.057 108.283C156.691 108.063 156.401 107.777 156.189 107.425V108.502H155.331V100.477H156.299V103.907C156.541 103.534 156.837 103.233 157.189 103.006C157.541 102.779 157.951 102.665 158.42 102.665C158.816 102.665 159.172 102.749 159.487 102.918C159.802 103.086 160.069 103.31 160.289 103.589C160.516 103.86 160.689 104.178 160.806 104.545C160.93 104.904 160.993 105.274 160.993 105.655C160.993 106.058 160.923 106.439 160.784 106.799C160.645 107.158 160.454 107.473 160.212 107.744C159.97 108.008 159.681 108.22 159.344 108.382C159.014 108.535 158.659 108.612 158.277 108.612ZM158.036 107.777C158.321 107.777 158.585 107.718 158.827 107.601C159.069 107.484 159.278 107.326 159.454 107.128C159.63 106.93 159.765 106.707 159.86 106.458C159.956 106.201 160.003 105.934 160.003 105.655C160.003 105.377 159.956 105.109 159.86 104.853C159.773 104.589 159.644 104.358 159.476 104.16C159.314 103.962 159.117 103.805 158.882 103.687C158.655 103.563 158.402 103.501 158.124 103.501C157.918 103.501 157.724 103.537 157.541 103.611C157.358 103.684 157.185 103.783 157.024 103.907C156.87 104.025 156.731 104.164 156.606 104.325C156.489 104.486 156.387 104.659 156.299 104.842V106.502C156.335 106.685 156.412 106.853 156.53 107.007C156.654 107.161 156.797 107.297 156.958 107.414C157.127 107.524 157.303 107.612 157.486 107.678C157.676 107.744 157.86 107.777 158.036 107.777ZM162.251 110.063C162.346 110.078 162.442 110.089 162.537 110.096C162.632 110.104 162.706 110.107 162.757 110.107C162.845 110.107 162.922 110.085 162.988 110.041C163.061 110.005 163.131 109.928 163.197 109.811C163.27 109.693 163.35 109.528 163.438 109.316C163.526 109.111 163.636 108.84 163.768 108.502L161.339 102.764H162.339L164.296 107.634L166.077 102.764H167L164.208 110.008C164.105 110.265 163.933 110.489 163.691 110.679C163.457 110.877 163.131 110.976 162.713 110.976C162.647 110.976 162.577 110.972 162.504 110.965C162.438 110.958 162.354 110.943 162.251 110.921V110.063ZM176.327 108.612C175.851 108.612 175.429 108.495 175.063 108.261C174.704 108.026 174.418 107.729 174.205 107.37V110.844H173.238V102.764H174.096V103.841C174.323 103.49 174.616 103.207 174.975 102.995C175.341 102.775 175.744 102.665 176.184 102.665C176.58 102.665 176.943 102.746 177.273 102.907C177.602 103.068 177.888 103.288 178.13 103.567C178.372 103.838 178.559 104.153 178.691 104.512C178.83 104.871 178.9 105.245 178.9 105.633C178.9 106.044 178.837 106.432 178.713 106.799C178.588 107.158 178.412 107.473 178.185 107.744C177.958 108.008 177.687 108.22 177.371 108.382C177.056 108.535 176.708 108.612 176.327 108.612ZM176.03 107.777C176.316 107.777 176.573 107.718 176.8 107.601C177.034 107.476 177.232 107.315 177.393 107.117C177.562 106.912 177.69 106.681 177.778 106.425C177.866 106.168 177.91 105.904 177.91 105.633C177.91 105.347 177.859 105.076 177.756 104.82C177.654 104.556 177.514 104.329 177.339 104.138C177.163 103.94 176.954 103.786 176.712 103.676C176.477 103.559 176.221 103.501 175.942 103.501C175.766 103.501 175.583 103.537 175.393 103.611C175.209 103.676 175.034 103.768 174.865 103.885C174.704 103.995 174.561 104.131 174.436 104.292C174.319 104.446 174.242 104.611 174.205 104.787V106.425C174.286 106.615 174.389 106.795 174.513 106.963C174.638 107.125 174.781 107.268 174.942 107.392C175.103 107.509 175.275 107.605 175.459 107.678C175.642 107.744 175.832 107.777 176.03 107.777ZM182.97 108.217C182.911 108.246 182.834 108.283 182.739 108.327C182.643 108.363 182.533 108.404 182.409 108.447C182.292 108.484 182.16 108.513 182.013 108.535C181.874 108.565 181.727 108.579 181.573 108.579C181.222 108.579 180.918 108.484 180.661 108.294C180.404 108.096 180.276 107.792 180.276 107.381V103.523H179.496V102.764H180.276V100.851H181.244V102.764H182.53V103.523H181.244V107.084C181.258 107.297 181.328 107.451 181.453 107.546C181.577 107.641 181.724 107.689 181.892 107.689C182.083 107.689 182.255 107.66 182.409 107.601C182.57 107.535 182.68 107.484 182.739 107.447L182.97 108.217ZM183.406 105.622C183.406 105.219 183.476 104.838 183.615 104.479C183.754 104.12 183.952 103.808 184.209 103.545C184.465 103.273 184.769 103.061 185.121 102.907C185.48 102.746 185.88 102.665 186.319 102.665C186.891 102.665 187.382 102.793 187.793 103.05C188.21 103.299 188.525 103.636 188.738 104.061L187.793 104.358C187.646 104.087 187.441 103.878 187.177 103.731C186.913 103.578 186.62 103.501 186.297 103.501C186.034 103.501 185.784 103.556 185.55 103.665C185.315 103.768 185.114 103.915 184.945 104.105C184.777 104.296 184.641 104.519 184.539 104.776C184.443 105.032 184.396 105.314 184.396 105.622C184.396 105.923 184.447 106.205 184.55 106.469C184.652 106.733 184.788 106.963 184.956 107.161C185.132 107.352 185.334 107.502 185.561 107.612C185.795 107.722 186.045 107.777 186.308 107.777C186.477 107.777 186.642 107.755 186.803 107.711C186.972 107.66 187.122 107.594 187.254 107.513C187.393 107.432 187.514 107.341 187.617 107.238C187.719 107.128 187.793 107.011 187.837 106.886L188.782 107.172C188.694 107.385 188.569 107.579 188.408 107.755C188.254 107.931 188.071 108.081 187.858 108.206C187.646 108.33 187.408 108.429 187.144 108.502C186.887 108.576 186.616 108.612 186.33 108.612C185.898 108.612 185.502 108.532 185.143 108.371C184.784 108.209 184.476 107.993 184.22 107.722C183.963 107.451 183.762 107.136 183.615 106.777C183.476 106.41 183.406 106.025 183.406 105.622Z" fill="#3D4647"/>
</svg>
