<svg width="210" height="170" viewBox="0 0 210 170" fill="none" xmlns="http://www.w3.org/2000/svg">
<g clip-path="url(#clip0_749_2488)">
<path d="M114.099 74.832C106.977 74.832 103.288 79.1696 103.288 85.0108C103.288 90.8752 106.977 95.236 114.099 95.236C121.244 95.236 124.933 90.8752 124.933 85.0108C124.944 79.1696 121.244 74.832 114.099 74.832ZM175.836 74.832C169.812 74.832 166.788 77.2033 166.788 81.4023C166.788 84.8143 168.796 86.4217 172.952 86.8609L177.576 87.3477C179.339 87.5442 180.144 88.2145 180.144 89.0935C180.144 90.0882 178.966 90.9795 176.129 90.9795C172.848 90.9795 171.528 90.1575 171.306 88.5034H166.508C166.73 92.9684 169.66 95.2476 175.953 95.2476C181.697 95.2476 184.907 92.7484 184.907 88.9891C184.907 85.716 183.005 83.7498 179.409 83.3451L174.856 82.8362C172.194 82.5472 171.529 81.8874 171.529 80.9966C171.529 80.0019 172.894 79.1117 175.568 79.1117C178.136 79.1117 179.479 80.0608 179.724 81.4834H184.617C184.371 77.377 180.903 74.832 175.836 74.832ZM64.1064 75.2945V87.8566C64.1064 93.4545 69.1494 95.2012 73.3755 95.2012C77.5787 95.2012 82.5988 93.4545 82.5988 87.8566V75.2945H77.602V87.2898H77.6254C77.6254 89.8116 76.0619 90.8288 73.3884 90.8288C70.7964 90.8288 69.1033 89.7653 69.1033 87.2898V75.2945H64.1064ZM22.181 75.3641L4.70361 86.1202V94.7607H4.85466L22.3788 83.9583H31.4734C31.7539 83.9583 32.0108 84.1776 32.0108 84.4904C32.0108 84.7444 31.8941 84.849 31.7544 84.9297L23.1492 90.0417C22.5887 90.377 22.3905 91.0362 22.3905 91.5336L22.378 94.7607H33.3177V76.0353C33.3177 75.6768 33.0378 75.3641 32.6176 75.3641L22.181 75.3641ZM49.5127 75.3641L42.0045 94.7619H47.1653L48.4731 91.129H56.8558L58.1402 94.7619H63.4754L55.8747 75.3641L49.5127 75.3641ZM84.8877 75.3641V79.5627H91.204V94.7619H96.1892V79.5627H102.482V75.3641L84.8877 75.3641ZM127.653 75.3641V94.7619H136.807C143.824 94.7619 145.761 92.1701 145.761 84.9181C145.761 78.1053 143.905 75.3641 136.807 75.3641H127.653ZM148.552 75.3641V94.7619H164.313V90.5622H153.549V87.0464H162.212V82.8362H153.549V79.5627H164.313V75.3641L148.552 75.3641ZM187.452 75.3641L187.476 94.7619H192.45V87.3941L199.199 94.7619H205.515L196.408 85.1847L205.515 75.3641H199.572L192.45 83.2408V75.3641L187.452 75.3641ZM114.099 79.1929C117.823 79.1929 119.82 81.448 119.82 85.0108C119.831 88.6543 117.823 90.8751 114.099 90.8751C110.409 90.8751 108.378 88.6425 108.378 85.0108C108.378 81.448 110.409 79.1929 114.099 79.1929ZM52.6996 79.4015L55.3959 87H49.9553L52.6996 79.4015ZM132.639 79.5627H136.608C139.737 79.5627 140.67 80.4069 140.67 84.9181C140.67 89.0358 139.62 90.5622 136.608 90.5622H132.639V79.5627Z" fill="#5D5D5D"/>
</g>
<defs>
<clipPath id="clip0_749_2488">
<rect width="202" height="22" fill="white" transform="translate(4 74)"/>
</clipPath>
</defs>
</svg>
