<svg width="210" height="170" viewBox="0 0 210 170" fill="none" xmlns="http://www.w3.org/2000/svg">
<g clip-path="url(#clip0_749_2487)">
<path d="M134.63 85.0002C134.63 101.375 121.375 114.63 105 114.63V85.0002H134.63ZM105 55.3706V85.0002H75.3706C75.3706 68.6255 88.6255 55.3706 105 55.3706Z" fill="#5D5D5D"/>
<path d="M105 55.3706C121.375 55.3706 134.63 68.6255 134.63 85.0002H105V55.3706ZM75.3706 85.0002H105V114.63C88.6255 114.63 75.3706 101.375 75.3706 85.0002Z" fill="white"/>
<path d="M105 55.3704V56.9949C120.441 56.9949 133.005 69.5565 133.005 85H134.63C134.63 68.637 121.363 55.3704 105 55.3704ZM105 113.005C89.5595 113.005 76.9949 100.443 76.9949 85H75.3704C75.3704 101.363 88.637 114.63 105 114.63M105 35C77.3865 35 55 57.3865 55 85C55 112.613 77.3865 135 105 135C132.613 135 155 112.613 155 85C155 57.3865 132.613 35 105 35ZM151.749 85C151.749 110.817 130.82 131.749 105 131.749C79.1798 131.749 58.2514 110.817 58.2514 85C58.2514 59.1827 79.1827 38.2514 105 38.2514C130.817 38.2514 151.749 59.1827 151.749 85Z" fill="#5D5D5D"/>
<path d="M83.6327 60.879C85.2305 59.2077 86.1351 57.2767 84.5374 55.4333C83.668 54.4328 82.2083 54.214 80.9982 54.707L80.8778 54.7536L80.9159 54.6486C81.0951 54.1732 81.2097 52.6564 79.9085 51.6093C79.2741 51.0988 78.4782 50.9093 77.6734 50.9909C76.1726 51.1426 75.0183 52.1606 71.8756 55.6404C70.9269 56.6904 69.5465 58.3472 68.7183 59.4206L77.3503 67.5527C80.211 64.4084 81.3771 63.2387 83.6327 60.879ZM72.369 58.8897C74.1078 56.7779 75.9552 54.8616 76.7923 54.1032C77.0566 53.864 77.3445 53.6248 77.694 53.5315C78.2608 53.3769 78.8453 53.7765 78.9775 54.354C79.1096 54.9345 78.7425 55.4858 78.3343 55.9408C77.4149 56.9704 74.0432 60.4736 74.0432 60.4736L72.369 58.8897ZM75.7496 62.0749C75.7496 62.0749 79.0333 58.6272 80.1053 57.5246C80.5312 57.0871 80.8043 56.8217 81.098 56.6788C81.4769 56.495 81.8911 56.4571 82.2611 56.7021C82.6253 56.9442 82.7927 57.3613 82.7017 57.7755C82.593 58.2684 82.1877 58.738 81.8529 59.0968C81.4006 59.5781 77.506 63.7171 77.5001 63.7229L75.7496 62.0749ZM105.987 51.1805L108.751 45.0318L108.927 44.4864L108.877 45.0552L109.168 53.2719C110.137 53.3623 111.138 53.4965 112.125 53.6598L111.676 41.4908C110.296 41.3391 108.921 41.2312 107.546 41.1729L104.824 47.8845L104.727 48.3833L104.63 47.8845L101.91 41.1729C100.536 41.2312 99.1611 41.3391 97.7806 41.4908L97.3313 53.6598C98.3181 53.4965 99.3197 53.3652 100.289 53.2719L100.58 45.0552L100.53 44.4864L100.706 45.0318L103.47 51.1805H105.987ZM128.94 63.9008C129.619 64.6242 130.597 65.791 131.146 66.4997L141.261 60.1235C140.756 59.4672 139.951 58.4697 139.349 57.7667L132.943 61.9728L132.506 62.3462L132.832 61.8736L135.66 56.2675L133.66 54.2811L128.012 57.09L127.536 57.4138L127.915 56.9792L132.153 50.6205C131.407 49.9904 130.691 49.4129 129.777 48.7129L123.357 58.7497C124.17 59.371 125.242 60.284 125.927 60.9053L131.971 57.7901L132.359 57.5071L132.074 57.8922L128.94 63.9008Z" fill="#5D5D5D"/>
</g>
<defs>
<clipPath id="clip0_749_2487">
<rect width="100" height="100" fill="white" transform="translate(55 35)"/>
</clipPath>
</defs>
</svg>
