<svg width="210" height="170" viewBox="0 0 210 170" fill="none" xmlns="http://www.w3.org/2000/svg">
<g clip-path="url(#clip0_749_2478)">
<path fill-rule="evenodd" clip-rule="evenodd" d="M142.429 97.0976L156.534 73.1011H203.795V77.0576H168.344L164.842 83.1111H183.557L181.301 87.0677H162.488L158.888 93.1212H177.701L175.347 97.0976H142.429ZM108.501 90.8462H122.685C122.211 91.5386 121.993 92.231 122.29 92.6662C122.804 93.4377 124.624 93.0616 125.099 92.9036C126.049 92.6069 126.563 92.0134 127.018 91.2221L129.392 87.0677H114.931C111.904 87.0677 111.805 85.2675 113.032 83.1111L117.483 75.5541C118.808 73.378 120.589 73.1011 122.863 73.1011H148.007C150.56 73.1011 150.56 75.1783 149.531 77.0576L148.107 79.6096H133.843C134.278 78.7787 134.298 78.0468 133.962 77.5918C133.408 76.84 131.944 76.9983 131.173 77.3939C130.559 77.7302 130.045 78.3039 129.491 79.2337L127.216 83.1111H141.202C144.15 83.1111 144.605 85.2677 143.675 87.0677L139.422 94.1697C138.275 96.0491 136.297 97.0976 134.021 97.0976H109.056C106.603 97.0976 105.752 95.4754 106.8 93.6949L108.501 90.8462ZM78.6293 77.0576C80.9043 73.1011 84.6828 73.1011 87.6106 73.1011H108.976C111.231 73.1011 113.13 74.9804 111.904 77.0576L102.467 93.1212C100.469 96.326 98.867 97.0976 96.315 97.0976H71.4481C68.995 97.0976 67.8674 95.2973 69.1929 93.1212L78.6293 77.0576ZM91.033 79.2337L83.8321 91.2221C83.5947 91.6573 83.4958 92.0527 83.6343 92.3695C84.0893 93.3586 86.8787 93.1806 87.848 92.9827C89.2328 92.6662 89.5889 91.6771 89.8856 91.2221L96.9876 79.2337C97.4822 78.3831 97.4229 77.8292 96.9876 77.4928C96.3546 76.9983 94.4159 76.9587 93.3476 77.2555C92.4376 77.5126 91.6859 78.0863 91.033 79.2337ZM44.1281 73.1011H71.547C73.7231 73.1011 75.4244 75.0793 74.0001 77.4533L71.1712 82.2605C69.9446 84.4366 67.8674 85.4653 66.3442 85.4653C67.8674 86.316 67.8674 87.8192 67.0959 89.1449L64.267 94.0705C63.5152 95.396 62.3678 97.0976 58.8861 97.0976H6.20459V93.1212H32.3178L44.1281 73.1011ZM52.3578 83.1111H59.3411C60.9633 83.1111 61.6161 82.2605 61.992 81.5087L63.4163 79.2337C63.99 78.205 63.99 77.0576 62.7635 77.0576H55.9384L52.3578 83.1111ZM46.4031 93.1212H53.3865C55.0086 93.1212 55.6615 92.2703 56.0371 91.5188L57.4617 89.2438C58.0354 88.1953 58.0354 87.0677 56.7891 87.0677H49.9838L46.4031 93.1212Z" fill="#5D5D5D"/>
</g>
<defs>
<clipPath id="clip0_749_2478">
<rect width="197.59" height="46.6632" fill="white" transform="translate(6.20459 61.6685)"/>
</clipPath>
</defs>
</svg>
