<svg width="210" height="170" viewBox="0 0 210 170" fill="none" xmlns="http://www.w3.org/2000/svg">
<g clip-path="url(#clip0_749_2479)">
<path d="M93.46 85.6723C93.46 92.9495 87.7671 98.3119 80.7806 98.3119C73.794 98.3119 68.1011 92.9495 68.1011 85.6723C68.1011 78.3438 73.794 73.0327 80.7806 73.0327C87.7671 73.0327 93.46 78.3438 93.46 85.6723ZM87.9096 85.6723C87.9096 81.1248 84.61 78.0133 80.7806 78.0133C76.9511 78.0133 73.6516 81.1248 73.6516 85.6723C73.6516 90.1742 76.9511 93.3313 80.7806 93.3313C84.61 93.3313 87.9096 90.1685 87.9096 85.6723Z" fill="#5D5D5D"/>
<path d="M120.814 85.6723C120.814 92.9495 115.121 98.3119 108.134 98.3119C101.148 98.3119 95.4546 92.9495 95.4546 85.6723C95.4546 78.3495 101.148 73.0327 108.134 73.0327C115.121 73.0327 120.814 78.3438 120.814 85.6723ZM115.263 85.6723C115.263 81.1248 111.964 78.0133 108.134 78.0133C104.305 78.0133 101.005 81.1248 101.005 85.6723C101.005 90.1742 104.305 93.3313 108.134 93.3313C111.964 93.3313 115.263 90.1685 115.263 85.6723Z" fill="#5D5D5D"/>
<path d="M147.028 73.7963V96.4883C147.028 105.823 141.523 109.635 135.015 109.635C128.889 109.635 125.202 105.538 123.811 102.187L128.644 100.175C129.504 102.233 131.613 104.66 135.009 104.66C139.175 104.66 141.756 102.09 141.756 97.2519V95.4341H141.563C140.32 96.967 137.927 98.3062 134.906 98.3062C128.587 98.3062 122.797 92.8013 122.797 85.7179C122.797 78.5832 128.587 73.0327 134.906 73.0327C137.921 73.0327 140.315 74.3719 141.563 75.8592H141.756V73.802H147.028V73.7963ZM142.149 85.7179C142.149 81.2673 139.18 78.0133 135.402 78.0133C131.573 78.0133 128.364 81.2673 128.364 85.7179C128.364 90.1229 131.573 93.3313 135.402 93.3313C139.18 93.3313 142.149 90.1229 142.149 85.7179Z" fill="#5D5D5D"/>
<path d="M155.718 60.4956V97.5368H150.304V60.4956H155.718Z" fill="#5D5D5D"/>
<path d="M176.814 89.8322L181.123 92.7043C179.732 94.7615 176.381 98.306 170.592 98.306C163.411 98.306 158.049 92.7556 158.049 85.6664C158.049 78.1499 163.457 73.0269 169.97 73.0269C176.53 73.0269 179.738 78.2468 180.786 81.0676L181.362 82.5037L164.466 89.5016C165.759 92.0375 167.771 93.3311 170.592 93.3311C173.418 93.3311 175.378 91.9406 176.814 89.8322ZM163.554 85.2846L174.848 80.5947C174.227 79.0161 172.358 77.9163 170.158 77.9163C167.338 77.9163 163.411 80.4066 163.554 85.2846Z" fill="#5D5D5D"/>
<path d="M47.609 82.384V77.0215H65.6794C65.856 77.9561 65.9472 79.0616 65.9472 80.2584C65.9472 84.2816 64.8474 89.2565 61.3028 92.8011C57.8551 96.3912 53.4501 98.306 47.6147 98.306C36.7986 98.306 27.7036 89.4959 27.7036 78.6798C27.7036 67.8638 36.7986 59.0537 47.6147 59.0537C53.5982 59.0537 57.8608 61.4016 61.0635 64.4617L57.2796 68.2456C54.983 66.0915 51.8716 64.4161 47.609 64.4161C39.7107 64.4161 33.5333 70.7815 33.5333 78.6798C33.5333 86.5782 39.7107 92.9435 47.609 92.9435C52.732 92.9435 55.6498 90.8863 57.5189 89.0172C59.0347 87.5013 60.032 85.3358 60.4252 82.3783L47.609 82.384Z" fill="#5D5D5D"/>
</g>
<defs>
<clipPath id="clip0_749_2479">
<rect width="155.003" height="52.4275" fill="white" transform="translate(27.4985 58.7861)"/>
</clipPath>
</defs>
</svg>
