<svg width="210" height="170" viewBox="0 0 210 170" fill="none" xmlns="http://www.w3.org/2000/svg">
<path d="M95.9699 76.1913C95.436 75.0346 94.6352 74.2338 93.3896 73.9669V73.344C94.1904 73.344 96.9486 73.433 97.5714 73.433C98.1053 73.433 100.775 73.344 101.664 73.344V73.9669C100.953 74.1448 100.063 74.5007 100.063 75.3015C100.063 75.8354 100.419 76.6361 101.042 77.9708L107.092 91.6729L112.787 77.9708C113.231 76.9031 113.587 76.0133 113.587 75.3904C113.587 74.6786 112.876 74.1448 111.986 73.9668V73.344C112.787 73.344 114.566 73.433 115.189 73.433C115.723 73.433 117.858 73.344 118.748 73.344V73.9668C117.324 74.3227 116.435 75.2125 115.634 76.992L107.27 96.7447H105.401L95.9699 76.1913ZM15 95.9439C16.0677 95.677 16.8685 95.2321 16.8685 93.9865V75.9244C16.8685 74.7677 16.1567 74.2339 15 73.9669V73.2551C15.5339 73.2551 18.0252 73.3441 18.648 73.3441C19.3598 73.3441 21.9401 73.2551 22.474 73.2551V73.8779C21.4063 74.1449 20.6055 74.5898 20.6055 75.8354V83.4875H34.1297V75.9244C34.1297 74.6787 33.4179 74.1449 32.2612 73.9669V73.2551C32.7951 73.2551 35.3753 73.3441 36.0872 73.3441C36.71 73.3441 39.2013 73.2551 39.8241 73.2551V73.8779C38.7564 74.1449 37.9557 74.5898 37.9557 75.8354V93.8975C37.9557 95.0542 38.6675 95.588 39.8241 95.855V96.4778C39.2903 96.4778 36.71 96.3888 36.0872 96.3888C35.3753 96.3888 32.884 96.4778 32.2612 96.4778V95.9439C33.3289 95.677 34.1297 95.2321 34.1297 93.9865V85.4446H20.6055V93.9865C20.6055 95.2321 21.3173 95.677 22.474 95.9439V96.5668C21.9401 96.5668 19.2709 96.4778 18.648 96.4778C18.0252 96.4778 15.6228 96.5668 15 96.5668V95.9439ZM170.888 95.9439C172.311 95.677 173.023 95.1431 173.023 93.8975V75.9244C173.023 74.6787 172.222 74.1449 170.888 73.9669V73.2551C171.688 73.2551 174.18 73.3441 174.891 73.3441C176.048 73.3441 179.162 73.0771 181.654 73.0771C189.929 73.0771 195 77.704 195 84.7328C195 91.5841 189.75 96.6554 181.209 96.6554C178.718 96.6554 175.87 96.4775 174.713 96.4775C174.002 96.4775 171.688 96.5665 170.888 96.5665V95.9439ZM176.76 94.7873C177.65 94.9652 179.162 95.0542 180.408 95.0542C187.348 95.0542 190.996 90.8723 190.996 85.0001C190.996 78.9496 187.17 74.6791 180.675 74.6791C179.34 74.6791 177.65 74.7681 176.76 74.9461V94.7873ZM77.0189 93.8086C77.0189 94.9652 77.8197 95.6771 79.1543 95.944V96.5668C78.3535 96.5668 75.8622 96.4779 75.0614 96.4779C74.4386 96.4779 71.9473 96.5668 71.1465 96.5668V95.944C72.4811 95.6771 73.1929 95.0542 73.1929 93.8086V76.0134C73.1929 74.9457 72.5701 74.2339 71.1465 73.967V73.2551C71.9473 73.2551 74.3496 73.3441 75.0614 73.3441C76.2181 73.3441 79.4213 73.1662 80.756 73.1662C86.3616 73.1662 89.4758 75.4796 89.4758 79.3946C89.4758 82.5088 87.1624 84.5553 83.6033 85.4451C83.6033 85.4451 84.4041 85.89 85.2048 86.8687C86.1836 88.0254 88.9418 91.9405 90.0096 93.2751C91.0773 94.6098 92.501 96.1223 94.0136 96.1223V96.6562C93.3017 96.8342 92.1451 96.9231 91.2553 96.9231C89.3868 96.9231 87.8743 96.2113 86.3616 94.4318C85.1159 92.9192 82.8915 89.627 81.6457 88.0254C80.8449 86.9577 79.8662 86.1569 78.0867 85.89C77.7308 85.801 77.3749 85.801 77.019 85.712L77.0189 93.8086ZM77.0189 84.3773C77.7307 84.4663 78.8874 84.5553 79.9551 84.5553C84.315 84.5553 85.6496 82.0639 85.6496 79.8395C85.6496 76.7253 83.5142 74.7677 79.7771 74.7677C78.9763 74.7677 77.8196 74.8567 77.0189 75.0346V84.3773ZM150.514 93.8086C150.514 94.9652 151.315 95.6771 152.649 95.944V96.5668C151.848 96.5668 149.357 96.4779 148.645 96.4779C148.022 96.4779 145.531 96.5668 144.73 96.5668V95.944C146.065 95.6771 146.777 95.0543 146.777 93.8086V76.0134C146.777 74.9457 146.154 74.2339 144.73 73.967V73.2551C145.531 73.2551 147.933 73.3441 148.645 73.3441C149.802 73.3441 153.005 73.1662 154.251 73.1662C159.856 73.1662 162.971 75.4796 162.971 79.3946C162.971 82.5088 160.657 84.5553 157.098 85.4451C157.098 85.4451 157.899 85.89 158.7 86.8687C159.678 88.0254 162.437 91.9405 163.505 93.2751C164.572 94.6098 165.996 96.1223 167.508 96.1223V96.6562C166.797 96.8342 165.64 96.9231 164.75 96.9231C162.882 96.9231 161.369 96.2113 159.856 94.4318C158.611 92.9192 156.386 89.627 155.141 88.0254C154.34 86.9577 153.361 86.1569 151.582 85.89C151.226 85.801 150.87 85.801 150.514 85.712L150.514 93.8086ZM150.514 84.3773C151.226 84.4663 152.382 84.5553 153.45 84.5553C157.81 84.5553 159.145 82.0639 159.145 79.8395C159.145 76.7253 157.009 74.7677 153.272 74.7677C152.471 74.7677 151.315 74.8567 150.514 75.0346V84.3773ZM43.2073 95.944C44.7199 95.5881 45.5207 94.6094 46.0545 93.3637L53.5286 75.3906C53.8845 74.6788 54.2404 73.1662 54.2404 73.1662H56.3759C56.3759 73.1662 56.7318 74.6788 57.0877 75.4796L65.0067 93.4527C65.5406 94.6983 66.1634 95.5881 67.765 95.944V96.5669C66.8752 96.5669 64.2949 96.4779 63.6721 96.4779C63.0492 96.4779 60.5579 96.5669 59.6681 96.5669V95.944C60.8248 95.6771 61.1807 95.0543 61.1807 94.5204C61.1807 94.0755 61.0028 93.4527 60.7358 92.9189L59.0453 89.0929H50.3255L48.8129 93.0078C48.6349 93.4527 48.457 94.0755 48.457 94.5204C48.457 95.1433 48.8129 95.6771 50.0585 96.033V96.6559C49.2577 96.6559 47.2113 96.5669 46.7664 96.5669L43.3854 96.6559L43.2073 95.944ZM58.0662 87.2242L54.3292 78.5933L50.8591 87.2242H58.0662ZM117.234 95.944C118.747 95.5881 119.548 94.6094 120.082 93.3637L127.556 75.3906C127.912 74.6788 128.267 73.1662 128.267 73.1662H130.403C130.403 73.1662 130.759 74.6788 131.115 75.4796L139.034 93.4527C139.568 94.6983 140.19 95.5881 141.792 95.944V96.5669C140.902 96.5669 138.322 96.4779 137.699 96.4779C137.076 96.4779 134.585 96.5669 133.695 96.5669V95.944C134.852 95.6771 135.208 95.0543 135.208 94.5204C135.208 94.0755 135.03 93.4527 134.763 92.9189L133.072 89.0929H124.352L122.84 93.0078C122.662 93.4527 122.484 94.0755 122.484 94.5204C122.484 95.1433 122.84 95.6771 124.086 96.033V96.6559C123.285 96.6559 121.238 96.5669 120.793 96.5669L117.412 96.6559V95.944H117.234ZM132.004 87.2242L128.267 78.5933L124.797 87.2242H132.004Z" fill="#5D5D5D"/>
</svg>
