<svg width="210" height="170" viewBox="0 0 210 170" fill="none" xmlns="http://www.w3.org/2000/svg">
<path d="M57.4794 106.731C53.8465 106.586 50.8737 105.591 48.5489 103.743C48.1056 103.39 47.0488 102.331 46.6939 101.884C45.7511 100.698 45.1103 99.5436 44.6831 98.2628C43.3677 94.3199 44.0447 89.146 46.6192 83.4678C48.8235 78.607 52.2252 73.7848 58.1587 67.1076C59.0332 66.1247 61.6367 63.2515 61.6527 63.2515C61.6592 63.2515 61.5178 63.4972 61.3387 63.7967C59.7961 66.3833 58.4759 69.43 57.7564 72.0679C56.6009 76.2999 56.7406 79.932 58.1644 82.749C59.1473 84.6892 60.8312 86.3699 62.7248 87.299C66.0405 88.9244 70.8948 89.0593 76.8228 87.6925C77.2307 87.5977 97.455 82.2247 121.765 75.7514C146.075 69.2782 165.969 63.9862 165.972 63.9903C165.979 63.9959 109.492 88.1872 80.169 100.738C75.5251 102.724 74.2836 103.226 72.1002 103.994C66.5199 105.955 61.5202 106.891 57.4794 106.731Z" fill="#5D5D5D"/>
</svg>
