<svg width="210" height="170" viewBox="0 0 210 170" fill="none" xmlns="http://www.w3.org/2000/svg">
<path d="M46.1655 66.646H63.0043C67.6518 66.646 71.289 67.9931 73.7138 70.3505C75.7345 72.3712 76.8795 75.2675 76.8795 78.7699V78.9046C76.8795 84.8319 73.6464 88.5364 68.9989 90.2877L77.9572 103.422H68.5274L60.6469 91.6348H54.2481V103.422H46.1655V66.646ZM62.4655 84.4951C66.3721 84.4951 68.6622 82.4071 68.6622 79.3088V79.1741C68.6622 75.7389 66.2374 73.9204 62.3308 73.9204H54.2481V84.4951H62.4655Z" fill="#5D5D5D"/>
<path d="M84.4907 66.646H92.5733V103.422H84.4907V66.646Z" fill="#5D5D5D"/>
<path d="M99.1064 98.0338L103.889 92.3086C107.189 95.0028 110.624 96.754 114.868 96.754C118.168 96.754 120.189 95.4069 120.189 93.2516V93.1169C120.189 91.0962 118.909 90.0185 112.78 88.4694C105.37 86.5834 100.588 84.5628 100.588 77.221V77.0863C100.588 70.4182 105.977 65.9727 113.453 65.9727C118.437 65.9054 123.22 67.5219 127.126 70.6202L122.95 76.6822C119.717 74.3921 116.484 73.045 113.386 73.045C110.287 73.045 108.671 74.4595 108.671 76.2781V76.4128C108.671 78.8376 110.22 79.6458 116.619 81.2624C124.095 83.2157 128.271 85.9099 128.271 92.3086V92.4433C128.271 99.7177 122.681 103.826 114.8 103.826C109.008 103.894 103.417 101.873 99.1064 98.0338Z" fill="#5D5D5D"/>
<path d="M134.199 66.646H148.546C160.064 66.646 168.079 74.5939 168.079 84.8993V85.034C168.079 95.4067 160.064 103.422 148.546 103.422H134.199V66.646ZM148.546 96.0802C155.147 96.0802 159.592 91.6348 159.592 85.1013V84.9666C159.592 78.4332 155.147 73.9204 148.546 73.9204H142.282V96.0802H148.546Z" fill="#5D5D5D"/>
</svg>
